<svg width="21" height="13" viewBox="0 0 21 13" fill="none" xmlns="http://www.w3.org/2000/svg">
<path d="M5.3 8.14C5.5 8.49333 5.73333 8.76333 6 8.95C6.26667 9.13667 6.59333 9.23 6.98 9.23C7.26667 9.23 7.52 9.17 7.74 9.05C7.96667 8.93 8.14 8.76 8.26 8.54C8.38667 8.31333 8.45 8.05667 8.45 7.77C8.45 7.48333 8.38667 7.23 8.26 7.01C8.13333 6.79 7.95667 6.62 7.73 6.5C7.50333 6.38 7.24333 6.32 6.95 6.32C6.68333 6.32 6.43667 6.37667 6.21 6.49C5.98333 6.59667 5.78667 6.76 5.62 6.98L4.79 6.6L5.09 2.6H9.04V3.51H5.99L5.8 5.87L5.75 5.88C5.92333 5.72667 6.13 5.61 6.37 5.53C6.61667 5.45 6.87333 5.41 7.14 5.41C7.6 5.41 8.00333 5.50667 8.35 5.7C8.70333 5.89333 8.97333 6.16667 9.16 6.52C9.35333 6.86667 9.45 7.27 9.45 7.73C9.45 8.21 9.34667 8.63333 9.14 9C8.94 9.36 8.65333 9.64 8.28 9.84C7.90667 10.04 7.47333 10.14 6.98 10.14C6.38667 10.14 5.87667 10.0033 5.45 9.73C5.03 9.45667 4.72333 9.10333 4.53 8.67L5.3 8.14ZM14.0549 3.39C13.5549 3.39 13.1216 3.50667 12.7549 3.74C12.3883 3.96667 12.1049 4.3 11.9049 4.74C11.7049 5.18 11.6049 5.7 11.6049 6.3C11.6049 6.91333 11.7016 7.44 11.8949 7.88C12.0883 8.31333 12.3649 8.64333 12.7249 8.87C13.0849 9.09667 13.5083 9.21 13.9949 9.21C14.3816 9.21 14.7183 9.14667 15.0049 9.02C15.2983 8.89333 15.5616 8.7 15.7949 8.44V6.86H14.0549V5.94H16.7649V8.81C16.4116 9.25 16.0049 9.58333 15.5449 9.81C15.0849 10.03 14.5683 10.14 13.9949 10.14C13.2949 10.14 12.6916 9.99 12.1849 9.69C11.6783 9.38333 11.2849 8.94333 11.0049 8.37C10.7316 7.79 10.5949 7.1 10.5949 6.3C10.5949 5.5 10.7349 4.81333 11.0149 4.24C11.2949 3.66 11.6949 3.22 12.2149 2.92C12.7349 2.61333 13.3483 2.46 14.0549 2.46C14.6083 2.46 15.1083 2.58333 15.5549 2.83C16.0016 3.07667 16.3616 3.41 16.6349 3.83L15.8449 4.38C15.6249 4.08667 15.3549 3.85 15.0349 3.67C14.7216 3.48333 14.3949 3.39 14.0549 3.39Z" fill="#ACCCFD"/>
<rect x="0.5" y="0.5" width="20" height="12" rx="2.5" stroke="#ACCCFD"/>
</svg>
