<svg width="106" height="106" viewBox="0 0 106 106" fill="none" xmlns="http://www.w3.org/2000/svg">
<path d="M0.450134 29.868C0.757162 13.749 13.749 0.754828 29.8679 0.444849L53 0L76.1321 0.444849C92.2511 0.754828 105.243 13.749 105.55 29.868L106 53.5L105.56 76.1429C105.247 92.2575 92.2574 105.245 76.1428 105.555L53 106L29.8572 105.555C13.7426 105.245 0.752572 92.2575 0.439668 76.1429L0 53.5L0.450134 29.868Z" fill="#3382FF"/>
<path d="M49.5 20.3094C51.9752 18.8803 55.0248 18.8803 57.5 20.3094L80.2439 33.4406C82.7191 34.8697 84.2439 37.5107 84.2439 40.3688V66.6312C84.2439 69.4893 82.7191 72.1303 80.2439 73.5594L57.5 86.6906C55.0248 88.1197 51.9752 88.1197 49.5 86.6906L26.7561 73.5594C24.2809 72.1303 22.7561 69.4893 22.7561 66.6312V40.3688C22.7561 37.5107 24.2809 34.8697 26.7561 33.4406L49.5 20.3094Z" fill="white"/>
<circle cx="54" cy="54" r="14" fill="white" stroke="#3382FF" stroke-width="6"/>
</svg>
