<svg width="114" height="125" viewBox="0 0 114 125" fill="none" xmlns="http://www.w3.org/2000/svg">
<path d="M20.7277 30.0013C29.7277 -9.4989 81.7277 -10.4989 93.2277 30.0013L95.7277 75.5014C95.7279 76.5011 111.228 92.5011 111.228 92.5011C114.728 95.5008 114.228 100.501 109.228 103.501H3.22788C-1.27209 101.001 -0.713026 95.2907 2.72781 92.0011L17.7277 75.5014L20.7277 30.0013Z" fill="#8482FF"/>
<path d="M39.2279 110.501H73.2279V110.501C73.2279 118.136 67.2712 124.466 59.6458 124.854C57.9176 124.942 56.6125 125.001 56.2279 125.001C55.9611 125.001 54.6263 124.937 52.8126 124.843C45.1912 124.448 39.2279 118.133 39.2279 110.501V110.501Z" fill="#8482FF"/>
</svg>
