<svg width="106" height="106" viewBox="0 0 106 106" fill="none" xmlns="http://www.w3.org/2000/svg">
<path d="M0.450134 29.868C0.757162 13.749 13.749 0.754828 29.8679 0.444849L53 0L76.1321 0.444849C92.2511 0.754828 105.243 13.749 105.55 29.868L106 53.5L105.56 76.1429C105.247 92.2575 92.2574 105.245 76.1428 105.555L53 106L29.8572 105.555C13.7426 105.245 0.752572 92.2575 0.439668 76.1429L0 53.5L0.450134 29.868Z" fill="#3482FE"/>
<path d="M20 36C20 31.0294 24.0294 27 29 27H77C81.9706 27 86 31.0294 86 36V67C86 71.9706 81.9706 76 77 76H62.5566C60.951 76 59.4432 76.771 58.5032 78.0725L55.1214 82.755C54.323 83.8604 52.677 83.8604 51.8786 82.755L48.4968 78.0725C47.5568 76.771 46.049 76 44.4434 76H29C24.0294 76 20 71.9706 20 67V36Z" fill="white"/>
<path d="M49.517 59.098V58.4943C49.5289 56.4228 49.7124 54.7715 50.0675 53.5405C50.4344 52.3094 50.9671 51.3151 51.6655 50.5575C52.3639 49.8 53.2043 49.1134 54.1868 48.4979C54.9207 48.0244 55.5777 47.5331 56.1577 47.0241C56.7377 46.5152 57.1993 45.9529 57.5426 45.3374C57.8859 44.71 58.0575 44.0116 58.0575 43.2422C58.0575 42.4254 57.8622 41.7093 57.4716 41.0938C57.081 40.4782 56.5542 40.0047 55.8913 39.6733C55.2403 39.3419 54.5182 39.1761 53.7251 39.1761C52.9557 39.1761 52.2277 39.3478 51.5412 39.6911C50.8546 40.0225 50.2924 40.5196 49.8544 41.1825C49.4164 41.8336 49.1797 42.6444 49.1442 43.6151H41.8999C41.959 41.2476 42.5272 39.2945 43.6044 37.7557C44.6816 36.205 46.108 35.0509 47.8835 34.2933C49.6591 33.5239 51.6181 33.1392 53.7607 33.1392C56.1162 33.1392 58.1996 33.5298 60.0107 34.3111C61.8217 35.0805 63.2422 36.1991 64.272 37.6669C65.3018 39.1347 65.8168 40.9044 65.8168 42.9759C65.8168 44.3608 65.5859 45.5919 65.1243 46.669C64.6745 47.7344 64.0412 48.6813 63.2244 49.5099C62.4077 50.3267 61.4429 51.0665 60.3303 51.7294C59.3951 52.2857 58.6257 52.8658 58.022 53.4695C57.4302 54.0732 56.9863 54.7715 56.6903 55.5646C56.4063 56.3577 56.2583 57.3343 56.2464 58.4943V59.098H49.517ZM53.0327 70.4616C51.849 70.4616 50.8369 70.0473 49.9964 69.2188C49.1679 68.3783 48.7595 67.3722 48.7713 66.2003C48.7595 65.0402 49.1679 64.0459 49.9964 63.2173C50.8369 62.3887 51.849 61.9744 53.0327 61.9744C54.1572 61.9744 55.1456 62.3887 55.9979 63.2173C56.8501 64.0459 57.2822 65.0402 57.294 66.2003C57.2822 66.9815 57.075 67.6977 56.6726 68.3487C56.282 68.9879 55.767 69.5028 55.1278 69.8935C54.4886 70.2723 53.7902 70.4616 53.0327 70.4616Z" fill="#3482FE"/>
</svg>
