<svg width="105" height="105" viewBox="0 0 105 105" fill="none" xmlns="http://www.w3.org/2000/svg">
<path d="M0.4407 29.8585C0.747728 13.7396 13.7395 0.745394 29.8584 0.435415L52.5 0L75.1415 0.435414C91.2605 0.745393 104.252 13.7396 104.559 29.8585L105 52.9953L104.57 75.1523C104.257 91.2669 91.2669 104.254 75.1522 104.564L52.5 105L29.8478 104.564C13.7332 104.254 0.743138 91.2669 0.430234 75.1523L0 52.9953L0.4407 29.8585Z" fill="#8383FD"/>
<path d="M83 41.2621C75.0959 10.2105 30.984 10.2815 22.806 41.2621C22.1179 43.3268 21.8704 50.6794 22.0634 56.2662C22.214 60.6257 23.1466 64.9986 25.0263 68.9349C36.8256 93.644 75.4058 91.5288 83 62.76M37.317 41.7996C43.7388 28.956 62.0672 28.956 68.4889 41.7996M36.7796 62.76C42.352 73.9048 56.8898 75.3788 64.8337 67.182C67.3377 64.5984 69.2167 61.2724 69.7481 57.714C70.5779 52.1579 69.9323 44.0755 67.9515 41.2621M49.0466 45.4854C51.882 42.3823 53.8655 42.4085 56.9575 45.7499C57.4754 46.3096 57.74 47.0555 57.74 47.818V55.7539C57.74 56.8053 57.369 57.8383 56.6173 58.5735C53.8558 61.2747 51.9284 61.3179 49.1601 58.565C48.4254 57.8343 48.066 56.8154 48.066 55.7792V48.1497C48.066 47.1707 48.3863 46.2081 49.0466 45.4854Z" stroke="white" stroke-width="6" stroke-linecap="round"/>
</svg>
