<svg width="106" height="106" viewBox="0 0 106 106" fill="none" xmlns="http://www.w3.org/2000/svg">
<path d="M29.8871 1.44466L53 1.00018L76.1129 1.44466C91.6945 1.74431 104.253 14.3054 104.55 29.887L105 53.4998L104.561 76.1235C104.258 91.7009 91.701 104.256 76.1236 104.555L53 105L29.8764 104.555C14.2989 104.256 1.74195 91.7009 1.43948 76.1235L1.00018 53.4998L1.44995 29.887C1.74675 14.3054 14.3055 1.74431 29.8871 1.44466Z" fill="#F5F5F5" stroke="#EBEBEB" stroke-width="2"/>
<path d="M83.8 53.729C83.8 51.454 83.5958 49.2665 83.2167 47.1665H53V59.5915H70.2667C69.5083 63.5873 67.2333 66.9707 63.8208 69.2457V77.3248H74.2333C80.3 71.7248 83.8 63.4998 83.8 53.729Z" fill="#4285F4"/>
<path d="M53.0001 85.0833C61.6626 85.0833 68.9251 82.225 74.2334 77.325L63.8209 69.2458C60.9626 71.1708 57.3167 72.3375 53.0001 72.3375C44.6584 72.3375 37.5709 66.7083 35.0334 59.125H24.3584V67.4083C29.6376 77.8792 40.4584 85.0833 53.0001 85.0833Z" fill="#34A853"/>
<path d="M35.0334 59.0956C34.3917 57.1706 34.0126 55.1289 34.0126 52.9998C34.0126 50.8706 34.3917 48.8289 35.0334 46.9039V38.6206H24.3584C22.1709 42.9373 20.9167 47.8081 20.9167 52.9998C20.9167 58.1914 22.1709 63.0623 24.3584 67.3789L32.6709 60.9039L35.0334 59.0956Z" fill="#FBBC05"/>
<path d="M53.0001 33.6915C57.7251 33.6915 61.9251 35.3248 65.2792 38.4748L74.4667 29.2873C68.8959 24.0957 61.6626 20.9165 53.0001 20.9165C40.4584 20.9165 29.6376 28.1207 24.3584 38.6207L35.0334 46.904C37.5709 39.3207 44.6584 33.6915 53.0001 33.6915Z" fill="#EA4335"/>
</svg>
