<svg width="104" height="104" viewBox="0 0 104 104" fill="none" xmlns="http://www.w3.org/2000/svg">
<rect width="104" height="104" rx="30" fill="#8382FF"/>
<path d="M24 47.2686C24 45.7686 24.6735 44.3478 25.8347 43.3981L48.8347 24.5886C50.6762 23.0826 53.3238 23.0826 55.1653 24.5886L78.1653 43.3981C79.3265 44.3478 80 45.7686 80 47.2686V77C80 79.7614 77.7614 82 75 82L65.5 82C63.2909 82 61.5 80.2091 61.5 78V66.6578C61.5 65.263 61.0141 63.9118 60.1258 62.8365L59.1282 61.6289C55.4668 57.1966 48.6452 57.2867 45.102 61.8141L44.275 62.8709C43.4489 63.9265 43 65.2283 43 66.5687V78C43 80.2091 41.2091 82 39 82L29 82C26.2386 82 24 79.7614 24 77V47.2686Z" fill="white"/>
</svg>
