<svg width="106" height="106" viewBox="0 0 106 106" fill="none" xmlns="http://www.w3.org/2000/svg">
<path d="M29.8871 1.44466L53 1.00018L76.1129 1.44466C91.6945 1.74431 104.253 14.3054 104.55 29.887L105 53.4998L104.561 76.1235C104.258 91.7009 91.701 104.256 76.1236 104.555L53 105L29.8764 104.555C14.2989 104.256 1.74195 91.7009 1.43948 76.1235L1.00018 53.4998L1.44995 29.887C1.74675 14.3054 14.3055 1.74431 29.8871 1.44466Z" fill="#F5F5F5" stroke="#EBEBEB" stroke-width="2"/>
<circle cx="36" cy="41" r="18" fill="url(#paint0_linear_15_145)"/>
<circle cx="55.5" cy="71.5" r="11.5" fill="url(#paint1_linear_15_145)"/>
<circle cx="75.5" cy="45.5" r="13.5" fill="url(#paint2_linear_15_145)"/>
<defs>
<linearGradient id="paint0_linear_15_145" x1="36" y1="23" x2="36" y2="59" gradientUnits="userSpaceOnUse">
<stop stop-color="#8187F9"/>
<stop offset="1" stop-color="#B69BEC"/>
</linearGradient>
<linearGradient id="paint1_linear_15_145" x1="55.5" y1="60" x2="55.5" y2="83" gradientUnits="userSpaceOnUse">
<stop stop-color="#ED7694"/>
<stop offset="1" stop-color="#FFB183"/>
</linearGradient>
<linearGradient id="paint2_linear_15_145" x1="75.5" y1="32" x2="75.5" y2="59" gradientUnits="userSpaceOnUse">
<stop stop-color="#BAE356"/>
<stop offset="1" stop-color="#44E9C2"/>
</linearGradient>
</defs>
</svg>
