<svg width="303" height="133" viewBox="0 0 303 133" fill="none" xmlns="http://www.w3.org/2000/svg">
<ellipse cx="151.5" cy="109" rx="151.5" ry="24" fill="url(#paint0_radial_580_333)"/>
<ellipse cx="151.5" cy="102.5" rx="130.5" ry="12.5" fill="url(#paint1_radial_580_333)"/>
<rect x="83.75" y="2.75" width="145.5" height="90.5" rx="12.25" fill="url(#paint2_linear_580_333)" stroke="black" stroke-width="2.5"/>
<rect x="82" y="1" width="149" height="94" rx="14" stroke="#7A7A7A" stroke-width="2"/>
<path d="M217.5 83H246.5L242.5 95C239.52 96.9411 237.418 97.4829 232 97.5C228.247 97.5412 226.091 97.2238 222 95L217.5 83Z" fill="url(#paint3_linear_580_333)"/>
<path d="M246.5 70.5033H217.5L221.5 58.5033C224.48 56.5622 226.582 56.0204 232 56.0033C235.753 55.9621 237.909 56.2795 242 58.5033L246.5 70.5033Z" fill="url(#paint4_linear_580_333)"/>
<path d="M224 53.1303C230.522 51.6027 234.135 51.6439 240.5 53.1303V66.1303H224V53.1303Z" fill="url(#paint5_linear_580_333)"/>
<path d="M240.5 101.17C233.978 102.697 230.365 102.656 224 101.17V88.1697H240.5V101.17Z" fill="url(#paint6_linear_580_333)"/>
<circle cx="232" cy="77.5" r="16.5" stroke="#8D8D8D"/>
<circle cx="232.25" cy="77.75" r="15.75" stroke="#635A5D"/>
<path d="M247.5 77.5C247.5 86.0604 240.56 93 232 93C223.44 93 216.5 86.0604 216.5 77.5C216.5 68.9396 223.44 62 232 62C240.56 62 247.5 68.9396 247.5 77.5Z" fill="url(#paint7_linear_580_333)" stroke="black"/>
<rect x="54.5682" y="19.0113" width="42.8636" height="80.9773" rx="3.13636" fill="url(#paint8_linear_580_333)" stroke="black" stroke-width="2.09091"/>
<rect x="53.5227" y="17.5227" width="44.9545" height="83.9545" rx="4.00409" stroke="#92999F" stroke-width="1.04545"/>
<defs>
<radialGradient id="paint0_radial_580_333" cx="0" cy="0" r="1" gradientUnits="userSpaceOnUse" gradientTransform="translate(146.276 109.96) rotate(-90) scale(22.08 183.058)">
<stop stop-color="white"/>
<stop offset="0.585025" stop-color="white" stop-opacity="0.5"/>
<stop offset="1" stop-color="#D9D9D9"/>
</radialGradient>
<radialGradient id="paint1_radial_580_333" cx="0" cy="0" r="1" gradientUnits="userSpaceOnUse" gradientTransform="translate(147 103) rotate(-90) scale(10 137.116)">
<stop stop-color="white"/>
<stop offset="0.585025" stop-color="white" stop-opacity="0.5"/>
<stop offset="1" stop-color="#D9D9D9"/>
</radialGradient>
<linearGradient id="paint2_linear_580_333" x1="156.5" y1="4" x2="156.5" y2="92" gradientUnits="userSpaceOnUse">
<stop stop-color="#A0D4FC"/>
<stop offset="1" stop-color="#F3E4C7"/>
</linearGradient>
<linearGradient id="paint3_linear_580_333" x1="232" y1="83" x2="232" y2="97.5033" gradientUnits="userSpaceOnUse">
<stop stop-color="#A6A6A6"/>
<stop offset="0.613767" stop-color="#C0C0C0"/>
<stop offset="0.77003" stop-color="#A6A6A6"/>
<stop offset="1" stop-color="#737373"/>
</linearGradient>
<linearGradient id="paint4_linear_580_333" x1="232" y1="70.5033" x2="232" y2="56" gradientUnits="userSpaceOnUse">
<stop stop-color="#A6A6A6"/>
<stop offset="0.613767" stop-color="#C0C0C0"/>
<stop offset="0.77003" stop-color="#A6A6A6"/>
<stop offset="1" stop-color="#737373"/>
</linearGradient>
<linearGradient id="paint5_linear_580_333" x1="232.25" y1="52" x2="232.25" y2="66.1303" gradientUnits="userSpaceOnUse">
<stop stop-color="#6E6D72"/>
<stop offset="0.556591" stop-color="#A6A6A6"/>
<stop offset="1" stop-color="#525357"/>
</linearGradient>
<linearGradient id="paint6_linear_580_333" x1="232.25" y1="102.3" x2="232.25" y2="88.1697" gradientUnits="userSpaceOnUse">
<stop stop-color="#6E6D72"/>
<stop offset="0.556591" stop-color="#A6A6A6"/>
<stop offset="0.789677" stop-color="#525357"/>
</linearGradient>
<linearGradient id="paint7_linear_580_333" x1="232" y1="61.5" x2="232" y2="93.5" gradientUnits="userSpaceOnUse">
<stop stop-color="#79BEB4"/>
<stop offset="1" stop-color="#AAE2B3"/>
</linearGradient>
<linearGradient id="paint8_linear_580_333" x1="75.4772" y1="22.3125" x2="75.4772" y2="96.2045" gradientUnits="userSpaceOnUse">
<stop stop-color="#A0D4FC"/>
<stop offset="1" stop-color="#F3E4C7"/>
</linearGradient>
</defs>
</svg>
