<svg width="106" height="106" viewBox="0 0 106 106" fill="none" xmlns="http://www.w3.org/2000/svg">
<path d="M0.450134 29.868C0.757162 13.749 13.749 0.754828 29.8679 0.444849L53 0L76.1321 0.444849C92.2511 0.754828 105.243 13.749 105.55 29.868L106 53.5L105.56 76.1429C105.247 92.2575 92.2574 105.245 76.1428 105.555L53 106L29.8572 105.555C13.7426 105.245 0.752572 92.2575 0.439668 76.1429L0 53.5L0.450134 29.868Z" fill="#FFB21E"/>
<path d="M81 44C81 56.0112 64.1077 76.8137 56.5643 85.5044C54.6638 87.694 51.3362 87.694 49.4357 85.5044C41.8923 76.8137 25 56.0112 25 44C25 28.536 37.536 16 53 16C68.464 16 81 28.536 81 44Z" fill="white"/>
<circle cx="53" cy="44" r="14" fill="#FFB21E"/>
</svg>
