<svg width="106" height="106" viewBox="0 0 106 106" fill="none" xmlns="http://www.w3.org/2000/svg">
<path d="M0.450134 29.868C0.757162 13.749 13.749 0.754828 29.8679 0.444849L53 0L76.1321 0.444849C92.2511 0.754828 105.243 13.749 105.55 29.868L106 53.5L105.56 76.1429C105.247 92.2575 92.2574 105.245 76.1428 105.555L53 106L29.8572 105.555C13.7426 105.245 0.752572 92.2575 0.439668 76.1429L0 53.5L0.450134 29.868Z" fill="#FF5C29"/>
<path d="M64.9995 43.5C64.9995 48.6669 64.6793 52.0221 64.153 54.19C63.63 56.3446 63.0246 56.8331 62.8366 56.9578C62.563 57.1392 61.9878 57.3416 60.3174 57.2981C59.6642 57.281 58.9753 57.2345 58.1569 57.1792C57.9618 57.166 57.7594 57.1523 57.5484 57.1384C56.4921 57.0689 55.2922 57 53.9998 57C52.7087 57 51.4938 57.0688 50.4141 57.138C50.2187 57.1506 50.0297 57.163 49.8462 57.175C48.9803 57.2318 48.2378 57.2804 47.5303 57.298C45.767 57.3416 44.9838 57.1469 44.5331 56.8758C44.2102 56.6816 43.5489 56.1397 42.9725 54.0747C42.3805 51.954 41.9998 48.6407 41.9998 43.5C41.9998 36.3318 43.8445 32.1425 45.9738 29.7817C48.0879 27.4379 50.8356 26.5 53.5 26.5C57.3073 26.5 59.9391 27.7664 61.7385 30.1237C63.6599 32.6408 64.9995 36.8827 64.9995 43.5Z" stroke="white" stroke-width="7"/>
<rect x="30" y="44.5" width="47" height="38" rx="7" fill="white"/>
</svg>
