<svg width="106" height="106" viewBox="0 0 106 106" fill="none" xmlns="http://www.w3.org/2000/svg">
<path d="M0.450134 29.868C0.757162 13.749 13.749 0.754828 29.8679 0.444849L53 0L76.1321 0.444849C92.2511 0.754828 105.243 13.749 105.55 29.868L106 53.5L105.56 76.1429C105.247 92.2575 92.2574 105.245 76.1428 105.555L53 106L29.8572 105.555C13.7426 105.245 0.752572 92.2575 0.439668 76.1429L0 53.5L0.450134 29.868Z" fill="#38D067"/>
<path d="M38 23.5C38 22.1193 39.1193 21 40.5 21H43.5C44.8807 21 46 22.1193 46 23.5V82C46 83.6569 44.6569 85 43 85H41.0884C40.0682 85 39.0866 84.6102 38.3443 83.9104L24.7484 71.0914C23.7606 70.16 24.4197 68.5 25.7775 68.5H35C36.6569 68.5 38 67.1569 38 65.5V23.5Z" fill="white"/>
<path d="M69 82.5C69 83.8807 67.8807 85 66.5 85H63.5C62.1193 85 61 83.8807 61 82.5V24C61 22.3431 62.3431 21 64 21H65.9116C66.9318 21 67.9134 21.3898 68.6557 22.0896L82.2516 34.9086C83.2394 35.84 82.5803 37.5 81.2225 37.5H72C70.3431 37.5 69 38.8431 69 40.5V82.5Z" fill="white"/>
</svg>
