<svg width="106" height="106" viewBox="0 0 106 106" fill="none" xmlns="http://www.w3.org/2000/svg">
<path d="M0.450134 29.868C0.757162 13.749 13.749 0.754828 29.8679 0.444849L53 0L76.1321 0.444849C92.2511 0.754828 105.243 13.749 105.55 29.868L106 53.5L105.56 76.1429C105.247 92.2575 92.2574 105.245 76.1428 105.555L53 106L29.8572 105.555C13.7426 105.245 0.752572 92.2575 0.439668 76.1429L0 53.5L0.450134 29.868Z" fill="#8C93B0"/>
<path d="M35.5835 62.1066C8.58275 41.6067 39.083 7.60679 62.0835 35.6065" stroke="white" stroke-width="6" stroke-linecap="round" stroke-linejoin="round"/>
<path d="M71.083 44.1068C98.0838 64.6067 67.5835 98.6066 44.583 70.6068" stroke="white" stroke-width="6" stroke-linecap="round" stroke-linejoin="round"/>
<path d="M62.0178 61.8005L44.5107 44.2934" stroke="white" stroke-width="7" stroke-linecap="round"/>
</svg>
