<svg width="21" height="11" viewBox="0 0 21 11" fill="none" xmlns="http://www.w3.org/2000/svg">
<path d="M20 5.5C20 5.84743 19.8226 6.33594 19.3937 6.90068C18.9719 7.45598 18.3374 8.04324 17.5068 8.58007C15.8476 9.65245 13.4419 10.5 10.5 10.5C7.55808 10.5 5.15249 9.65246 3.49333 8.58008C2.66275 8.04324 2.02826 7.45598 1.60644 6.90068C1.17745 6.33593 1.00004 5.84739 1 5.49994C0.999958 5.15254 1.17727 4.66406 1.60624 4.09931C2.02803 3.54402 2.66253 2.95677 3.49314 2.41993C5.15236 1.34755 7.55808 0.5 10.5 0.5C13.4419 0.5 15.8476 1.34755 17.5068 2.41993C18.3374 2.95676 18.9719 3.54402 19.3937 4.09932C19.8226 4.66406 20 5.15257 20 5.5Z" fill="#BCBCBC" stroke="#BCBCBC" stroke-linejoin="round"/>
<circle cx="10.5" cy="5.5" r="4" stroke="white"/>
</svg>
