<svg width="106" height="106" viewBox="0 0 106 106" fill="none" xmlns="http://www.w3.org/2000/svg">
<path d="M0.450134 29.868C0.757162 13.749 13.749 0.754828 29.8679 0.444849L53 0L76.1321 0.444849C92.2511 0.754828 105.243 13.749 105.55 29.868L106 53.5L105.56 76.1429C105.247 92.2575 92.2574 105.245 76.1428 105.555L53 106L29.8572 105.555C13.7426 105.245 0.752572 92.2575 0.439668 76.1429L0 53.5L0.450134 29.868Z" fill="#3482FE"/>
<mask id="path-2-inside-1_15_157" fill="white">
<path fill-rule="evenodd" clip-rule="evenodd" d="M59.3073 68.2732C59.1151 68.4788 58.9134 68.6747 58.7026 68.8615C56.4293 70.8757 51.7809 73 42.5 73C33.2191 73 28.5707 70.8757 26.2974 68.8615C24.191 66.9951 23 64.2211 23 60C23 55.9274 24.2257 53.1118 26.4419 51.1764C28.819 49.1004 33.5225 47 42.5 47C51.4775 47 56.181 49.1004 58.5582 51.1764C59.8171 52.2758 60.7564 53.6593 61.3329 55.3959C62.2929 55.4628 63.3459 55.5 64.5 55.5C66.4588 55.5 68.1263 55.3928 69.5422 55.2151C67.665 45.9226 59.8226 39 42.5 39C22.3122 39 15 48.402 15 60C15 71.598 21.8122 81 42.5 81C57.8835 81 65.5946 75.8012 68.5375 68.3665C67.2386 68.4563 65.8922 68.5 64.5 68.5C62.6905 68.5 60.9582 68.4262 59.3073 68.2732Z"/>
</mask>
<path fill-rule="evenodd" clip-rule="evenodd" d="M59.3073 68.2732C59.1151 68.4788 58.9134 68.6747 58.7026 68.8615C56.4293 70.8757 51.7809 73 42.5 73C33.2191 73 28.5707 70.8757 26.2974 68.8615C24.191 66.9951 23 64.2211 23 60C23 55.9274 24.2257 53.1118 26.4419 51.1764C28.819 49.1004 33.5225 47 42.5 47C51.4775 47 56.181 49.1004 58.5582 51.1764C59.8171 52.2758 60.7564 53.6593 61.3329 55.3959C62.2929 55.4628 63.3459 55.5 64.5 55.5C66.4588 55.5 68.1263 55.3928 69.5422 55.2151C67.665 45.9226 59.8226 39 42.5 39C22.3122 39 15 48.402 15 60C15 71.598 21.8122 81 42.5 81C57.8835 81 65.5946 75.8012 68.5375 68.3665C67.2386 68.4563 65.8922 68.5 64.5 68.5C62.6905 68.5 60.9582 68.4262 59.3073 68.2732Z" fill="white"/>
<path d="M58.7026 68.8615L59.3657 69.61L59.3657 69.61L58.7026 68.8615ZM59.3073 68.2732L59.3995 67.2775L58.9116 67.2323L58.5769 67.5902L59.3073 68.2732ZM26.2974 68.8615L26.9606 68.113L26.9606 68.113L26.2974 68.8615ZM26.4419 51.1764L27.0996 51.9296L27.0996 51.9296L26.4419 51.1764ZM58.5582 51.1764L57.9004 51.9296L57.9004 51.9296L58.5582 51.1764ZM61.3329 55.3959L60.3839 55.7109L60.595 56.3468L61.2634 56.3934L61.3329 55.3959ZM69.5422 55.2151L69.6668 56.2073L70.7357 56.0731L70.5224 55.0171L69.5422 55.2151ZM68.5375 68.3665L69.4673 68.7346L70.0512 67.2595L68.4685 67.3689L68.5375 68.3665ZM59.3657 69.61C59.5994 69.4029 59.8236 69.1852 60.0377 68.9563L58.5769 67.5902C58.4065 67.7724 58.2274 67.9465 58.0394 68.113L59.3657 69.61ZM42.5 74C51.9151 74 56.8411 71.8469 59.3657 69.61L58.0394 68.113C56.0174 69.9046 51.6468 72 42.5 72V74ZM25.6343 69.61C28.1589 71.8469 33.0849 74 42.5 74V72C33.3532 72 28.9826 69.9046 26.9606 68.113L25.6343 69.61ZM22 60C22 64.4225 23.2574 67.504 25.6343 69.61L26.9606 68.113C25.1246 66.4862 24 64.0197 24 60H22ZM25.7841 50.4232C23.3032 52.5898 22 55.7079 22 60H24C24 56.1468 25.1481 53.6339 27.0996 51.9296L25.7841 50.4232ZM42.5 46C33.3817 46 28.4073 48.1322 25.7841 50.4232L27.0996 51.9296C29.2306 50.0686 33.6633 48 42.5 48V46ZM59.2159 50.4232C56.5927 48.1322 51.6183 46 42.5 46V48C51.3367 48 55.7694 50.0686 57.9004 51.9296L59.2159 50.4232ZM62.282 55.0808C61.6498 53.1766 60.6107 51.6413 59.2159 50.4232L57.9004 51.9296C59.0234 52.9104 59.863 54.142 60.3839 55.7109L62.282 55.0808ZM61.2634 56.3934C62.2482 56.4621 63.3245 56.5 64.5 56.5V54.5C63.3673 54.5 62.3376 54.4635 61.4025 54.3983L61.2634 56.3934ZM64.5 56.5C66.4948 56.5 68.2044 56.3908 69.6668 56.2073L69.4177 54.2228C68.0483 54.3947 66.4227 54.5 64.5 54.5V56.5ZM70.5224 55.0171C69.536 50.1343 66.9669 45.8412 62.3659 42.7895C57.7886 39.7536 51.2832 38 42.5 38V40C51.0394 40 57.1165 41.7077 61.2604 44.4562C65.3806 47.1889 67.6712 51.0034 68.562 55.4131L70.5224 55.0171ZM42.5 38C32.2665 38 25.1201 40.3818 20.5218 44.3976C15.9033 48.4309 14 53.9852 14 60H16C16 54.4168 17.7527 49.4711 21.8373 45.904C25.9421 42.3192 32.5456 40 42.5 40V38ZM14 60C14 65.9962 15.767 71.5557 20.3289 75.5977C24.8699 79.6212 32.0232 82 42.5 82V80C32.289 80 25.6923 77.6778 21.6552 74.1008C17.639 70.5423 16 65.6018 16 60H14ZM42.5 82C58.1009 82 66.3131 76.7029 69.4673 68.7346L67.6077 67.9985C64.876 74.8994 57.6662 80 42.5 80V82ZM68.4685 67.3689C67.1947 67.457 65.8714 67.5 64.5 67.5V69.5C65.913 69.5 67.2825 69.4557 68.6064 69.3641L68.4685 67.3689ZM64.5 67.5C62.7174 67.5 61.0162 67.4273 59.3995 67.2775L59.215 69.269C60.9003 69.4251 62.6636 69.5 64.5 69.5V67.5Z" fill="#3482FE" mask="url(#path-2-inside-1_15_157)"/>
<mask id="path-4-inside-2_15_157" fill="white">
<path fill-rule="evenodd" clip-rule="evenodd" d="M82.5544 45C82.5544 49.2211 81.3634 51.9951 79.257 53.8615C76.9837 55.8757 72.3354 58 63.0544 58C53.7735 58 49.1252 55.8757 46.8519 53.8615C45.6109 52.7619 44.6876 51.3472 44.1384 49.5072C43.7839 49.5024 43.4226 49.5 43.0544 49.5C40.3431 49.5 38.006 49.6319 36.0001 49.8562C37.8062 59.1128 45.3482 66 63.0544 66C83.7423 66 90.5544 56.598 90.5544 45C90.5544 33.402 83.2423 24 63.0544 24C47.9938 24 40.0992 29.2327 37.0606 36.7062C38.9576 36.568 40.956 36.5 43.0544 36.5C44.2608 36.5 45.434 36.5225 46.5739 36.5678C46.7104 36.4335 46.8512 36.3031 46.9963 36.1764C49.3734 34.1004 54.0769 32 63.0544 32C72.0319 32 76.7355 34.1004 79.1126 36.1764C81.3288 38.1118 82.5544 40.9274 82.5544 45Z"/>
</mask>
<path fill-rule="evenodd" clip-rule="evenodd" d="M82.5544 45C82.5544 49.2211 81.3634 51.9951 79.257 53.8615C76.9837 55.8757 72.3354 58 63.0544 58C53.7735 58 49.1252 55.8757 46.8519 53.8615C45.6109 52.7619 44.6876 51.3472 44.1384 49.5072C43.7839 49.5024 43.4226 49.5 43.0544 49.5C40.3431 49.5 38.006 49.6319 36.0001 49.8562C37.8062 59.1128 45.3482 66 63.0544 66C83.7423 66 90.5544 56.598 90.5544 45C90.5544 33.402 83.2423 24 63.0544 24C47.9938 24 40.0992 29.2327 37.0606 36.7062C38.9576 36.568 40.956 36.5 43.0544 36.5C44.2608 36.5 45.434 36.5225 46.5739 36.5678C46.7104 36.4335 46.8512 36.3031 46.9963 36.1764C49.3734 34.1004 54.0769 32 63.0544 32C72.0319 32 76.7355 34.1004 79.1126 36.1764C81.3288 38.1118 82.5544 40.9274 82.5544 45Z" fill="white"/>
<path d="M79.257 53.8615L79.9202 54.61L79.9202 54.61L79.257 53.8615ZM46.8519 53.8615L46.1887 54.61L46.1887 54.61L46.8519 53.8615ZM44.1384 49.5072L45.0966 49.2212L44.8865 48.5172L44.1518 48.5073L44.1384 49.5072ZM36.0001 49.8562L35.889 48.8624L34.8108 48.9829L35.0186 50.0477L36.0001 49.8562ZM37.0606 36.7062L36.1342 36.3296L35.528 37.8205L37.1332 37.7036L37.0606 36.7062ZM46.5739 36.5678L46.5342 37.5671L46.9668 37.5843L47.2753 37.2806L46.5739 36.5678ZM46.9963 36.1764L46.3385 35.4232L46.3385 35.4232L46.9963 36.1764ZM79.1126 36.1764L78.4548 36.9296L78.4548 36.9296L79.1126 36.1764ZM79.9202 54.61C82.297 52.504 83.5544 49.4225 83.5544 45H81.5544C81.5544 49.0197 80.4298 51.4862 78.5938 53.113L79.9202 54.61ZM63.0544 59C72.4696 59 77.3956 56.8469 79.9202 54.61L78.5938 53.113C76.5718 54.9046 72.2012 57 63.0544 57V59ZM46.1887 54.61C48.7133 56.8469 53.6393 59 63.0544 59V57C53.9077 57 49.5371 54.9046 47.5151 53.113L46.1887 54.61ZM43.1802 49.7932C43.7805 51.8046 44.8026 53.3818 46.1887 54.61L47.5151 53.113C46.4191 52.142 45.5947 50.8899 45.0966 49.2212L43.1802 49.7932ZM44.1518 48.5073C43.7928 48.5025 43.427 48.5 43.0544 48.5V50.5C43.4182 50.5 43.775 50.5024 44.125 50.5071L44.1518 48.5073ZM43.0544 48.5C40.3112 48.5 37.9366 48.6334 35.889 48.8624L36.1112 50.85C38.0755 50.6303 40.3751 50.5 43.0544 50.5V48.5ZM35.0186 50.0477C35.9666 54.9062 38.4381 59.1878 43.0106 62.2317C47.5557 65.2574 54.085 67 63.0544 67V65C54.3177 65 48.2229 63.299 44.1189 60.5669C40.0423 57.8531 37.8397 54.0627 36.9816 49.6647L35.0186 50.0477ZM63.0544 67C73.5312 67 80.6846 64.6212 85.2256 60.5977C89.7874 56.5557 91.5544 50.9962 91.5544 45H89.5544C89.5544 50.6018 87.9154 55.5423 83.8992 59.1008C79.8622 62.6778 73.2655 65 63.0544 65V67ZM91.5544 45C91.5544 38.9852 89.6511 33.4309 85.0327 29.3976C80.4343 25.3818 73.2879 23 63.0544 23V25C73.0088 25 79.6124 27.3192 83.7171 30.904C87.8017 34.4711 89.5544 39.4168 89.5544 45H91.5544ZM63.0544 23C47.7694 23 39.3848 28.3348 36.1342 36.3296L37.9869 37.0829C40.8136 30.1307 48.2182 25 63.0544 25V23ZM37.1332 37.7036C39.0035 37.5673 40.9774 37.5 43.0544 37.5V35.5C40.9346 35.5 38.9118 35.5687 36.9879 35.7089L37.1332 37.7036ZM43.0544 37.5C44.2484 37.5 45.4083 37.5222 46.5342 37.5671L46.6137 35.5686C45.4597 35.5227 44.2732 35.5 43.0544 35.5V37.5ZM46.3385 35.4232C46.1788 35.5627 46.0234 35.7066 45.8725 35.8551L47.2753 37.2806C47.3975 37.1604 47.5237 37.0435 47.6541 36.9296L46.3385 35.4232ZM63.0544 31C53.9361 31 48.9618 33.1322 46.3385 35.4232L47.6541 36.9296C49.7851 35.0686 54.2177 33 63.0544 33V31ZM79.7704 35.4232C77.1471 33.1322 72.1727 31 63.0544 31V33C71.8912 33 76.3238 35.0686 78.4548 36.9296L79.7704 35.4232ZM83.5544 45C83.5544 40.7079 82.2512 37.5898 79.7704 35.4232L78.4548 36.9296C80.4063 38.6339 81.5544 41.1468 81.5544 45H83.5544Z" fill="#3482FE" mask="url(#path-4-inside-2_15_157)"/>
</svg>
