<svg width="22" height="22" viewBox="0 0 22 22" fill="none" xmlns="http://www.w3.org/2000/svg">
<circle cx="11" cy="11" r="10.3605" stroke="black" stroke-width="1.27907"/>
<path d="M10.0561 13.907V13.8416C10.0633 13.1475 10.136 12.5952 10.2741 12.1846C10.4122 11.774 10.6084 11.4415 10.8627 11.1871C11.1171 10.9328 11.4223 10.6984 11.7784 10.484C11.9928 10.3532 12.1854 10.1988 12.3562 10.0207C12.527 9.83902 12.6614 9.63008 12.7595 9.39389C12.8613 9.1577 12.9122 8.89607 12.9122 8.60901C12.9122 8.2529 12.8286 7.94404 12.6614 7.68241C12.4943 7.42078 12.2708 7.21911 11.991 7.0774C11.7112 6.93568 11.4005 6.86482 11.059 6.86482C10.761 6.86482 10.4739 6.9266 10.1978 7.05014C9.92161 7.17369 9.69087 7.36809 9.50555 7.63335C9.32023 7.89862 9.21303 8.24564 9.18396 8.67442H7.81042C7.83949 8.05668 7.99937 7.52798 8.29007 7.0883C8.5844 6.64862 8.97139 6.3125 9.45104 6.07994C9.93433 5.84738 10.4703 5.7311 11.059 5.7311C11.6985 5.7311 12.2545 5.85828 12.7268 6.11264C13.2029 6.367 13.5699 6.71584 13.8279 7.15915C14.0895 7.60247 14.2203 8.10756 14.2203 8.67442C14.2203 9.07412 14.1585 9.43568 14.035 9.75908C13.9151 10.0825 13.7406 10.3714 13.5117 10.6257C13.2864 10.8801 13.0139 11.1054 12.6941 11.3016C12.3744 11.5015 12.1182 11.7122 11.9256 11.9339C11.733 12.1519 11.5931 12.4117 11.5059 12.7133C11.4187 13.0149 11.3715 13.391 11.3642 13.8416V13.907H10.0561ZM10.7537 17.1337C10.4848 17.1337 10.2541 17.0374 10.0615 16.8448C9.86892 16.6523 9.77263 16.4215 9.77263 16.1526C9.77263 15.8837 9.86892 15.653 10.0615 15.4604C10.2541 15.2678 10.4848 15.1715 10.7537 15.1715C11.0226 15.1715 11.2534 15.2678 11.446 15.4604C11.6385 15.653 11.7348 15.8837 11.7348 16.1526C11.7348 16.3307 11.6894 16.4942 11.5986 16.6432C11.5114 16.7921 11.3933 16.9121 11.2443 17.0029C11.0989 17.0901 10.9354 17.1337 10.7537 17.1337Z" fill="black"/>
</svg>
