<svg width="106" height="106" viewBox="0 0 106 106" fill="none" xmlns="http://www.w3.org/2000/svg">
<path d="M0.450134 29.868C0.757162 13.749 13.749 0.754828 29.8679 0.444849L53 0L76.1321 0.444849C92.2511 0.754828 105.243 13.749 105.55 29.868L106 53.5L105.56 76.1429C105.247 92.2575 92.2574 105.245 76.1428 105.555L53 106L29.8572 105.555C13.7426 105.245 0.752572 92.2575 0.439668 76.1429L0 53.5L0.450134 29.868Z" fill="#FF5C29"/>
<path d="M27 43.9999C32.898 15.9914 72.8721 16.0408 79 43.9999V73.9999H27V43.9999Z" fill="white"/>
<path d="M27 77H79" stroke="white" stroke-width="7" stroke-linecap="round"/>
<path d="M68 65V46" stroke="#FF5C29" stroke-width="7" stroke-linecap="round"/>
</svg>
