<svg width="175" height="175" viewBox="0 0 175 175" fill="none" xmlns="http://www.w3.org/2000/svg">
<rect width="175" height="175" rx="41" fill="white"/>
<path d="M72 48C72 39.7157 78.7157 33 87 33V33V143V143C78.7157 143 72 136.284 72 128V48Z" fill="#3265B0"/>
<path d="M72 48C72 39.7157 78.7157 33 87 33V33V143V143C78.7157 143 72 136.284 72 128V48Z" fill="#3265B0"/>
<path d="M102 48C102 39.7157 95.2843 33 87 33V33V143V143C95.2843 143 102 136.284 102 128V48Z" fill="#1767D2"/>
<path d="M114.141 55.0096C121.315 50.8675 130.489 53.3256 134.631 60.5V60.5L39.3685 115.5V115.5C35.2264 108.326 37.6845 99.1518 44.8589 95.0096L114.141 55.0096Z" fill="#3265B0"/>
<path d="M114.141 55.0096C121.315 50.8675 130.489 53.3256 134.631 60.5V60.5L39.3685 115.5V115.5C35.2264 108.326 37.6845 99.1518 44.8589 95.0096L114.141 55.0096Z" fill="#3265B0"/>
<path d="M129.141 80.9904C136.315 76.8483 138.773 67.6744 134.631 60.5V60.5L39.3685 115.5V115.5C43.5107 122.674 52.6845 125.133 59.8589 120.99L129.141 80.9904Z" fill="#1767D2"/>
<path d="M129.141 95.0096C136.315 99.1518 138.773 108.326 134.631 115.5V115.5L39.3686 60.5V60.5C43.5107 53.3256 52.6845 50.8675 59.8589 55.0096L129.141 95.0096Z" fill="#3265B0"/>
<path d="M129.141 95.0096C136.315 99.1518 138.773 108.326 134.631 115.5V115.5L39.3686 60.5V60.5C43.5107 53.3256 52.6845 50.8675 59.8589 55.0096L129.141 95.0096Z" fill="#3265B0"/>
<path d="M114.141 120.99C121.315 125.133 130.489 122.674 134.631 115.5V115.5L39.3686 60.5V60.5C35.2264 67.6744 37.6845 76.8482 44.8589 80.9904L114.141 120.99Z" fill="#1767D2"/>
<path d="M57.2476 54.185L115 87.305L57.5 87.5C24.4962 79.22 36.066 46.4225 57.2476 54.185Z" fill="#D82E25" stroke="#D82E25" stroke-linecap="round"/>
<path d="M57.2477 121.455L115 88.28L58 88C24.9962 96.28 36.0661 129.218 57.2477 121.455Z" fill="#EA4238" stroke="#EA4238" stroke-linecap="round"/>
</svg>
