<svg width="106" height="106" viewBox="0 0 106 106" fill="none" xmlns="http://www.w3.org/2000/svg">
<path d="M0.450134 29.868C0.757162 13.749 13.749 0.754828 29.8679 0.444849L53 0L76.1321 0.444849C92.2511 0.754828 105.243 13.749 105.55 29.868L106 53.5L105.56 76.1429C105.247 92.2575 92.2574 105.245 76.1428 105.555L53 106L29.8572 105.555C13.7426 105.245 0.752572 92.2575 0.439668 76.1429L0 53.5L0.450134 29.868Z" fill="#35D267"/>
<path d="M85.825 60.9701L85.9068 60.643L85.9327 60.3068C86.3784 54.5127 86.6287 48.6189 86.6831 43.7271C86.7357 39.0005 86.6151 34.7863 86.1896 32.6234C85.9096 31.2005 85.2144 29.9638 84.3418 29.0135C82.9788 27.5293 80.6527 25.976 78.305 24.5942C75.8258 23.1349 72.8723 21.6112 69.9019 20.23C66.9328 18.8493 63.88 17.58 61.1968 16.6462C58.6926 15.7746 55.9815 15 53.9444 15C52.0532 15 49.6406 15.5525 47.2785 16.2602C44.8044 17.0014 41.9933 18.0361 39.1545 19.2397C33.5543 21.6141 27.4443 24.8169 23.4773 28.0135C21.336 29.7389 20.4708 32.2435 20.4185 34.4754C20.3872 35.8105 20.3289 37.3109 20.2656 38.9403C20.0324 44.9451 19.7311 52.7003 20.4625 60.3792L20.4988 60.7609L20.607 61.1287C22.9852 69.2147 29.0053 75.5306 34.8074 80.0445C40.6728 84.6076 46.7707 87.6803 50.0123 89.1605C52.5645 90.3258 55.4829 90.2603 57.9766 89.0022C61.1329 87.4099 67.0517 84.1503 72.6514 79.5365C78.166 74.9927 83.8888 68.7152 85.825 60.9701Z" fill="white" stroke="#35D267" stroke-width="8"/>
<path d="M39 54.5L51.5 64.5L68 42" stroke="#35D267" stroke-width="7" stroke-linecap="round" stroke-linejoin="round"/>
</svg>
