<svg width="105" height="105" viewBox="0 0 105 105" fill="none" xmlns="http://www.w3.org/2000/svg">
<path d="M0.4407 29.8585C0.747728 13.7396 13.7395 0.745394 29.8584 0.435415L52.5 0L75.1415 0.435414C91.2605 0.745393 104.252 13.7396 104.559 29.8585L105 52.9953L104.57 75.1523C104.257 91.2669 91.2669 104.254 75.1522 104.564L52.5 105L29.8478 104.564C13.7332 104.254 0.743138 91.2669 0.430234 75.1523L0 52.9953L0.4407 29.8585Z" fill="#35D267"/>
<path d="M20 42.5C20 39.7386 22.2386 37.5 25 37.5H38.731C39.226 37.5 39.7034 37.3164 40.0709 36.9848L54.9901 23.5211C56.9198 21.7797 60 23.1491 60 25.7483V79.8735C60 82.4534 56.9592 83.8301 55.0206 82.1278L39.5 68.5H25C22.2386 68.5 20 66.2614 20 63.5V42.5Z" fill="white"/>
<path d="M67.5 42C67.5 42 72 45.5 72 52.5C72 59.5 67.5 63 67.5 63" stroke="white" stroke-width="6" stroke-linecap="round"/>
<path d="M78 35C78 35 85 41 85 53C85 65 78 71 78 71" stroke="white" stroke-width="6" stroke-linecap="round"/>
</svg>
