<svg width="106" height="106" viewBox="0 0 106 106" fill="none" xmlns="http://www.w3.org/2000/svg">
<path d="M0.450134 29.868C0.757162 13.749 13.749 0.754828 29.8679 0.444849L53 0L76.1321 0.444849C92.2511 0.754828 105.243 13.749 105.55 29.868L106 53.5L105.56 76.1429C105.247 92.2575 92.2574 105.245 76.1428 105.555L53 106L29.8572 105.555C13.7426 105.245 0.752572 92.2575 0.439668 76.1429L0 53.5L0.450134 29.868Z" fill="#FF5C29"/>
<path d="M51.4651 23.8376C52.2645 22.8805 53.7355 22.8804 54.5349 23.8376L79.7032 53.9678C80.791 55.2701 79.865 57.25 78.1683 57.25H27.8317C26.1349 57.25 25.209 55.2701 26.2968 53.9678L51.4651 23.8376Z" fill="white"/>
<rect x="42" y="46" width="23" height="38" rx="2" fill="white"/>
</svg>
