<svg width="106" height="106" viewBox="0 0 106 106" fill="none" xmlns="http://www.w3.org/2000/svg">
<path d="M0.450134 29.868C0.757162 13.749 13.749 0.754828 29.8679 0.444849L53 0L76.1321 0.444849C92.2511 0.754828 105.243 13.749 105.55 29.868L106 53.5L105.56 76.1429C105.247 92.2575 92.2574 105.245 76.1428 105.555L53 106L29.8572 105.555C13.7426 105.245 0.752572 92.2575 0.439668 76.1429L0 53.5L0.450134 29.868Z" fill="#3382FE"/>
<path d="M18.1434 49.7028C17.1591 48.2646 17.3229 46.3554 18.4643 45.0384L23.0474 39.7501L31.5474 30.7501L40.0474 22.7501L45.6034 18.5832C47.0464 17.5009 49.0352 17.5184 50.4591 18.6258L52.5475 20.2501L56.5475 24.2501L64.5475 32.7501L33.0475 64.2501L23.5475 55.7501C23.5475 55.7501 21.3034 53.7195 20.0475 52.2501C19.427 51.5241 18.7418 50.5771 18.1434 49.7028Z" fill="white"/>
<path d="M37.0474 67.25L67.5474 36.75L70.5474 39.75L70.8897 40.4347C71.6157 41.8867 71.5916 43.6008 70.825 45.0318L65.8919 54.2402C65.0871 55.7425 65.3226 57.5898 66.4786 58.8422L70.5474 63.25L80.5474 72.75L81.2231 73.4257C83.4467 75.6494 83.7917 79.1334 82.0474 81.75V81.75V81.75C79.4027 83.5131 75.8974 83.2501 73.5455 81.112L72.0474 79.75L63.5474 70.25L59.1099 66.1539C57.8721 65.0113 56.051 64.7666 54.5555 65.5421L45.3117 70.3352C44.1786 70.9227 42.8637 71.0547 41.6365 70.704L40.0474 70.25L37.0474 67.25Z" fill="white"/>
</svg>
