<svg width="105" height="105" viewBox="0 0 105 105" fill="none" xmlns="http://www.w3.org/2000/svg">
<path d="M0.4407 29.8585C0.747728 13.7396 13.7395 0.745394 29.8584 0.435415L52.5 0L75.1415 0.435414C91.2605 0.745393 104.252 13.7396 104.559 29.8585L105 52.9953L104.57 75.1523C104.257 91.2669 91.2669 104.254 75.1522 104.564L52.5 105L29.8478 104.564C13.7332 104.254 0.743138 91.2669 0.430234 75.1523L0 52.9953L0.4407 29.8585Z" fill="#FF5C29"/>
<path d="M23.1175 36.1383C23.0561 33.1947 25.6643 30.9075 28.5747 31.3526V31.3526C49.3397 34.5284 64.0683 53.2854 62.2287 74.2111L61.6169 81.17C61.5461 81.9752 60.9991 82.6656 60.217 82.8697C55.4258 84.1196 50.3408 84.0068 44.1751 83.019C32.1274 81.0888 23.8235 70.0259 23.5693 57.8271L23.1175 36.1383Z" fill="white"/>
<path d="M58.8664 43.397C57.8332 41.7142 58.057 39.4916 59.5838 38.2393C64.3517 34.3286 69.3172 31.8427 77.0667 31.179C79.5885 30.963 81.7338 32.8896 81.9178 35.4139C82.7423 46.728 82.0761 60.0569 82.0058 61.3906C82.0016 61.4713 81.9945 61.531 81.9786 61.6102C81.7255 62.8686 79.1239 74.5274 68.6819 79.7447C67.7514 80.2096 66.6373 79.7689 66.5252 78.7347C65.9246 73.1985 70.4433 62.2512 58.8664 43.397Z" fill="white"/>
<path d="M43.5 30C42.3906 29.5562 42.1795 28.077 43.1204 27.3405L49.4185 22.4116C51.2286 20.995 53.7714 20.995 55.5815 22.4116L62.3765 27.7295C63.0369 28.2463 62.8136 29.2966 62 29.5V29.5L58.4908 31.4496C57.8324 31.8154 57.2174 32.2543 56.6576 32.7582L54.4138 34.7776C53.3129 35.7684 51.6536 35.8075 50.5072 34.8695L47.6461 32.5287C47.2161 32.1768 46.7575 31.8615 46.2751 31.5858L43.5 30V30Z" fill="#F5F5F5"/>
</svg>
