<svg width="106" height="106" viewBox="0 0 106 106" fill="none" xmlns="http://www.w3.org/2000/svg">
<path d="M0.450134 29.868C0.757162 13.749 13.749 0.754828 29.8679 0.444849L53 0L76.1321 0.444849C92.2511 0.754828 105.243 13.749 105.55 29.868L106 53.5L105.56 76.1429C105.247 92.2575 92.2574 105.245 76.1428 105.555L53 106L29.8572 105.555C13.7426 105.245 0.752572 92.2575 0.439668 76.1429L0 53.5L0.450134 29.868Z" fill="#3681FE"/>
<path d="M19 47C37.4 27.2477 70.6222 26.7539 88 47" stroke="white" stroke-width="8" stroke-linecap="round" stroke-linejoin="bevel"/>
<path d="M30 56C42.129 42.8318 65.5448 42.5026 77 56" stroke="white" stroke-width="8" stroke-linecap="round" stroke-linejoin="bevel"/>
<path d="M41 65.188C47.4516 58.6039 59.9068 58.4393 66 65.188" stroke="white" stroke-width="8" stroke-linecap="round" stroke-linejoin="bevel"/>
<path d="M54.1343 81.6677C53.7656 81.9702 53.2345 81.9702 52.8658 81.6677L46.39 76.3546C45.8498 75.9114 45.9191 75.0649 46.5243 74.7155L49.5 72.9975C51.9752 71.5684 55.0248 71.5684 57.5 72.9974L60.4758 74.7155C61.081 75.0649 61.1503 75.9114 60.6101 76.3546L54.1343 81.6677Z" fill="white"/>
</svg>
