<svg width="106" height="106" viewBox="0 0 106 106" fill="none" xmlns="http://www.w3.org/2000/svg">
<path d="M0.450134 29.868C0.757162 13.749 13.749 0.754828 29.8679 0.444849L53 0L76.1321 0.444849C92.2511 0.754828 105.243 13.749 105.55 29.868L106 53.5L105.56 76.1429C105.247 92.2575 92.2574 105.245 76.1428 105.555L53 106L29.8572 105.555C13.7426 105.245 0.752572 92.2575 0.439668 76.1429L0 53.5L0.450134 29.868Z" fill="white"/>
<path d="M19 47C37.4 27.2477 70.6222 26.7539 88 47" stroke="#5C5C5C" stroke-width="8" stroke-linecap="round" stroke-linejoin="bevel"/>
<path d="M30 56C42.129 42.8318 65.5448 42.5026 77 56" stroke="#5C5C5C" stroke-width="8" stroke-linecap="round" stroke-linejoin="bevel"/>
<path d="M41 65.188C47.4516 58.6039 59.9068 58.4393 66 65.188" stroke="#5C5C5C" stroke-width="8" stroke-linecap="round" stroke-linejoin="bevel"/>
<path d="M54.1346 81.6677C53.7658 81.9702 53.2348 81.9702 52.866 81.6677L46.3902 76.3546C45.85 75.9114 45.9194 75.0649 46.5245 74.7155L49.5002 72.9975C51.9755 71.5684 55.025 71.5684 57.5003 72.9974L60.4761 74.7155C61.0812 75.0649 61.1506 75.9114 60.6104 76.3546L54.1346 81.6677Z" fill="#5C5C5C"/>
</svg>
